<svg width="128" height="128" viewBox="0 0 128 128" fill="none" xmlns="http://www.w3.org/2000/svg">
  <rect x="16" y="8" width="96" height="112" rx="12" fill="#A0A0A0"/>
  <rect x="28" y="20" width="72" height="20" rx="4" fill="#4FC3F7"/>
  <rect x="28" y="48" width="20" height="20" rx="3" fill="#F8F8F8"/>
  <rect x="52" y="48" width="20" height="20" rx="3" fill="#F8F8F8"/>
  <rect x="76" y="48" width="20" height="20" rx="3" fill="#F8F8F8"/>
  <rect x="28" y="72" width="20" height="20" rx="3" fill="#F8F8F8"/>
  <rect x="52" y="72" width="20" height="20" rx="3" fill="#F8F8F8"/>
  <rect x="76" y="72" width="20" height="20" rx="3" fill="#F8F8F8"/>
  <rect x="28" y="96" width="20" height="20" rx="3" fill="#F8F8F8"/>
  <rect x="52" y="96" width="20" height="20" rx="3" fill="#F8F8F8"/>
  <rect x="76" y="96" width="20" height="20" rx="3" fill="#1976D2"/>
  <ellipse cx="64" cy="120" rx="16" ry="4" fill="#B0AFAF" opacity="0.5"/>
</svg> 